<svg width="20" height="20" viewBox="0 0 20 20" fill="none" xmlns="http://www.w3.org/2000/svg">
<mask id="mask0_534_495" style="mask-type:luminance" maskUnits="userSpaceOnUse" x="0" y="0" width="20" height="20">
<path d="M0 0H20V20H0V0Z" fill="white"/>
</mask>
<g mask="url(#mask0_534_495)">
<path d="M10 16.5957C6.32979 16.5957 3.40426 13.617 3.40426 10C3.40426 6.32979 6.38298 3.40426 10 3.40426C13.617 3.40426 16.5957 6.32979 16.5957 10C16.5957 13.6702 13.6702 16.5957 10 16.5957ZM10 0C4.46808 0 0 4.52128 0 10C0 15.5319 4.52128 20 10 20C15.4787 20 20 15.5319 20 10C20 4.46808 15.5319 0 10 0Z" fill="#99A1BD"/>
</g>
<mask id="mask1_534_495" style="mask-type:luminance" maskUnits="userSpaceOnUse" x="0" y="0" width="20" height="20">
<path d="M0 0H20V20H0V0Z" fill="white"/>
</mask>
<g mask="url(#mask1_534_495)">
<path d="M18.2979 8.29787C17.3404 8.29787 16.5957 9.04255 16.5957 10C16.5957 13.6702 13.617 16.5957 10 16.5957C6.38298 16.5957 3.40426 13.6702 3.40426 10C3.40426 6.32979 6.32979 3.40426 10 3.40426C10.9574 3.40426 11.7021 2.65957 11.7021 1.70213C11.7021 0.744681 10.9574 0 10 0C4.46808 0 0 4.52128 0 10C0 15.4787 4.46808 20 10 20C15.5319 20 20 15.5319 20 10C20 9.04255 19.2553 8.29787 18.2979 8.29787Z" fill="#ECC94E"/>
</g>
</svg>
